<svg width="44" height="66" viewBox="0 0 44 66" fill="none" xmlns="http://www.w3.org/2000/svg">
<g filter="url(#filter0_b_1_29666)">
<rect width="43.3333" height="43.3333" rx="21.6667" fill="url(#paint0_linear_1_29666)"/>
<path d="M19.8612 13.5417H13.5417V19.8611H19.8612V13.5417Z" stroke="white" stroke-width="1.80556" stroke-linecap="round" stroke-linejoin="round"/>
<path d="M29.7917 13.5417H23.4723V19.8611H29.7917V13.5417Z" stroke="white" stroke-width="1.80556" stroke-linecap="round" stroke-linejoin="round"/>
<path d="M29.7917 23.4722H23.4723V29.7917H29.7917V23.4722Z" stroke="white" stroke-width="1.80556" stroke-linecap="round" stroke-linejoin="round"/>
<path d="M19.8612 23.4722H13.5417V29.7917H19.8612V23.4722Z" stroke="white" stroke-width="1.80556" stroke-linecap="round" stroke-linejoin="round"/>
<rect x="0.338542" y="0.338542" width="42.6563" height="42.6563" rx="21.3281" stroke="url(#paint1_linear_1_29666)" stroke-width="0.677083"/>
</g>
<path d="M9.69788 60.75H8.43604L11.2713 52.8712H12.6447L15.48 60.75H14.2182L11.9907 54.3023H11.9292L9.69788 60.75ZM9.90947 57.6647H14.0027V58.6649H9.90947V57.6647ZM16.5255 62.9659V54.8409H17.6488V55.7988H17.745C17.8117 55.6757 17.9078 55.5334 18.0335 55.3718C18.1592 55.2102 18.3336 55.0692 18.5567 54.9486C18.7798 54.8255 19.0748 54.764 19.4415 54.764C19.9186 54.764 20.3443 54.8845 20.7188 55.1256C21.0932 55.3667 21.3869 55.7142 21.5997 56.1681C21.8152 56.6221 21.9229 57.1684 21.9229 57.807C21.9229 58.4456 21.8165 58.9932 21.6036 59.4497C21.3907 59.9036 21.0983 60.2537 20.7265 60.4999C20.3546 60.7436 19.9301 60.8654 19.4531 60.8654C19.094 60.8654 18.8004 60.8051 18.5721 60.6846C18.3464 60.5641 18.1694 60.423 18.0412 60.2614C17.913 60.0998 17.8142 59.9562 17.745 59.8306H17.6757V62.9659H16.5255ZM17.6526 57.7955C17.6526 58.2109 17.7129 58.5751 17.8335 58.888C17.954 59.2009 18.1284 59.4458 18.3567 59.6228C18.5849 59.7972 18.8645 59.8844 19.1953 59.8844C19.539 59.8844 19.8262 59.7934 20.0571 59.6113C20.2879 59.4266 20.4623 59.1766 20.5803 58.8611C20.7008 58.5456 20.7611 58.1904 20.7611 57.7955C20.7611 57.4056 20.7021 57.0555 20.5841 56.7452C20.4687 56.4349 20.2943 56.1899 20.0609 56.0104C19.8301 55.8309 19.5416 55.7411 19.1953 55.7411C18.8619 55.7411 18.5798 55.827 18.349 55.9989C18.1207 56.1707 17.9476 56.4105 17.8296 56.7183C17.7116 57.026 17.6526 57.3851 17.6526 57.7955ZM23.2117 62.9659V54.8409H24.335V55.7988H24.4312C24.4979 55.6757 24.594 55.5334 24.7197 55.3718C24.8454 55.2102 25.0198 55.0692 25.2429 54.9486C25.466 54.8255 25.761 54.764 26.1277 54.764C26.6048 54.764 27.0305 54.8845 27.405 55.1256C27.7794 55.3667 28.0731 55.7142 28.2859 56.1681C28.5014 56.6221 28.6091 57.1684 28.6091 57.807C28.6091 58.4456 28.5027 58.9932 28.2898 59.4497C28.0769 59.9036 27.7845 60.2537 27.4126 60.4999C27.0408 60.7436 26.6163 60.8654 26.1393 60.8654C25.7802 60.8654 25.4866 60.8051 25.2583 60.6846C25.0326 60.5641 24.8556 60.423 24.7274 60.2614C24.5992 60.0998 24.5004 59.9562 24.4312 59.8306H24.3619V62.9659H23.2117ZM24.3388 57.7955C24.3388 58.2109 24.3991 58.5751 24.5197 58.888C24.6402 59.2009 24.8146 59.4458 25.0429 59.6228C25.2711 59.7972 25.5507 59.8844 25.8815 59.8844C26.2252 59.8844 26.5124 59.7934 26.7433 59.6113C26.9741 59.4266 27.1485 59.1766 27.2665 58.8611C27.387 58.5456 27.4473 58.1904 27.4473 57.7955C27.4473 57.4056 27.3883 57.0555 27.2703 56.7452C27.1549 56.4349 26.9805 56.1899 26.7471 56.0104C26.5163 55.8309 26.2278 55.7411 25.8815 55.7411C25.5481 55.7411 25.266 55.827 25.0352 55.9989C24.8069 56.1707 24.6338 56.4105 24.5158 56.7183C24.3978 57.026 24.3388 57.3851 24.3388 57.7955ZM34.3258 56.2836L33.2833 56.4682C33.2397 56.3349 33.1704 56.2079 33.0755 56.0874C32.9832 55.9668 32.8575 55.8681 32.6985 55.7911C32.5395 55.7142 32.3407 55.6757 32.1022 55.6757C31.7765 55.6757 31.5046 55.7488 31.2866 55.895C31.0686 56.0386 30.9596 56.2246 30.9596 56.4528C30.9596 56.6503 31.0327 56.8093 31.1789 56.9299C31.3251 57.0504 31.5611 57.1491 31.8868 57.2261L32.8255 57.4415C33.3692 57.5672 33.7744 57.7608 34.0411 58.0224C34.3079 58.284 34.4412 58.6239 34.4412 59.0419C34.4412 59.3958 34.3386 59.7113 34.1335 59.9883C33.9309 60.2627 33.6475 60.4781 33.2833 60.6346C32.9216 60.791 32.5023 60.8693 32.0253 60.8693C31.3636 60.8693 30.8237 60.7282 30.4057 60.4461C29.9876 60.1614 29.7311 59.7575 29.6363 59.2343L30.7481 59.065C30.8173 59.3548 30.9596 59.5741 31.1751 59.7228C31.3905 59.869 31.6713 59.9421 32.0176 59.9421C32.3946 59.9421 32.6959 59.8639 32.9216 59.7074C33.1473 59.5484 33.2602 59.3548 33.2602 59.1265C33.2602 58.9419 33.1909 58.7867 33.0524 58.661C32.9165 58.5354 32.7075 58.4405 32.4254 58.3764L31.4251 58.1571C30.8737 58.0314 30.4659 57.8314 30.2018 57.5569C29.9402 57.2825 29.8094 56.935 29.8094 56.5144C29.8094 56.1656 29.9068 55.8604 30.1017 55.5988C30.2967 55.3372 30.566 55.1333 30.9096 54.9871C31.2533 54.8383 31.647 54.764 32.0907 54.764C32.7293 54.764 33.232 54.9025 33.5987 55.1795C33.9655 55.4539 34.2078 55.8219 34.3258 56.2836Z" fill="#FCFCFD"/>
<defs>
<filter id="filter0_b_1_29666" x="-51.5573" y="-51.5573" width="146.448" height="146.448" filterUnits="userSpaceOnUse" color-interpolation-filters="sRGB">
<feFlood flood-opacity="0" result="BackgroundImageFix"/>
<feGaussianBlur in="BackgroundImageFix" stdDeviation="25.7787"/>
<feComposite in2="SourceAlpha" operator="in" result="effect1_backgroundBlur_1_29666"/>
<feBlend mode="normal" in="SourceGraphic" in2="effect1_backgroundBlur_1_29666" result="shape"/>
</filter>
<linearGradient id="paint0_linear_1_29666" x1="6.73214" y1="0.619046" x2="51.2546" y2="22.2898" gradientUnits="userSpaceOnUse">
<stop stop-color="#EFEFEF" stop-opacity="0.6"/>
<stop offset="1" stop-color="white" stop-opacity="0.08"/>
</linearGradient>
<linearGradient id="paint1_linear_1_29666" x1="2.16667" y1="3.52857" x2="48.2116" y2="20.6803" gradientUnits="userSpaceOnUse">
<stop stop-color="white" stop-opacity="0.6"/>
<stop offset="1" stop-color="white" stop-opacity="0.1"/>
</linearGradient>
</defs>
</svg>
