<svg width="43" height="65" viewBox="0 0 43 65" fill="none" xmlns="http://www.w3.org/2000/svg">
<g filter="url(#filter0_b_1_29639)">
<g clip-path="url(#clip0_1_29639)">
<path fill-rule="evenodd" clip-rule="evenodd" d="M43 0.496277H0V43.4963H43V0.496277ZM13.3091 12.9181C12.8191 12.9181 12.4218 13.3153 12.4218 13.8054V20.0163C12.4218 20.5063 12.8191 20.9035 13.3091 20.9035H19.52C20.01 20.9035 20.4073 20.5063 20.4073 20.0163V13.8054C20.4073 13.3153 20.01 12.9181 19.52 12.9181H13.3091ZM14.1964 19.129V14.6926H18.6327V19.129H14.1964ZM23.0691 12.9181C22.5791 12.9181 22.1818 13.3153 22.1818 13.8054V20.0163C22.1818 20.5063 22.5791 20.9035 23.0691 20.9035H29.28C29.77 20.9035 30.1673 20.5063 30.1673 20.0163V13.8054C30.1673 13.3153 29.77 12.9181 29.28 12.9181H23.0691ZM23.9564 19.129V14.6926H28.3927V19.129H23.9564ZM13.3091 22.6781C12.8191 22.6781 12.4218 23.0753 12.4218 23.5654V29.7763C12.4218 30.2663 12.8191 30.6636 13.3091 30.6636H19.52C20.01 30.6636 20.4073 30.2663 20.4073 29.7763V23.5654C20.4073 23.0753 20.01 22.6781 19.52 22.6781H13.3091ZM14.1964 28.889V24.4526H18.6327V28.889H14.1964ZM23.0691 22.6781C22.5791 22.6781 22.1818 23.0753 22.1818 23.5654V29.7763C22.1818 30.2663 22.5791 30.6636 23.0691 30.6636H29.28C29.77 30.6636 30.1673 30.2663 30.1673 29.7763V23.5654C30.1673 23.0753 29.77 22.6781 29.28 22.6781H23.0691ZM23.9564 28.889V24.4526H28.3927V28.889H23.9564Z" fill="white"/>
</g>
</g>
<path d="M9.29951 60.409H8.05935L10.8459 52.6656H12.1958L14.9823 60.409H13.7422L11.553 54.0721H11.4925L9.29951 60.409ZM9.50747 57.3767H13.5304V58.3597H9.50747V57.3767ZM16.0098 62.5869V54.6014H17.1139V55.5429H17.2084C17.2739 55.4219 17.3685 55.282 17.492 55.1232C17.6155 54.9644 17.7869 54.8258 18.0062 54.7073C18.2255 54.5863 18.5154 54.5258 18.8758 54.5258C19.3447 54.5258 19.7631 54.6443 20.1311 54.8812C20.4991 55.1182 20.7877 55.4597 20.997 55.9059C21.2087 56.352 21.3146 56.8889 21.3146 57.5166C21.3146 58.1442 21.21 58.6824 21.0007 59.1311C20.7915 59.5772 20.5042 59.9213 20.1387 60.1633C19.7732 60.4027 19.356 60.5225 18.8872 60.5225C18.5343 60.5225 18.2457 60.4632 18.0213 60.3448C17.7995 60.2263 17.6256 60.0876 17.4995 59.9288C17.3735 59.77 17.2765 59.6289 17.2084 59.5054H17.1403V62.5869H16.0098ZM17.1177 57.5052C17.1177 57.9136 17.1769 58.2715 17.2954 58.579C17.4138 58.8865 17.5852 59.1273 17.8096 59.3012C18.0339 59.4726 18.3087 59.5583 18.6338 59.5583C18.9716 59.5583 19.2539 59.4688 19.4808 59.2899C19.7076 59.1084 19.879 58.8626 19.995 58.5526C20.1135 58.2425 20.1727 57.8934 20.1727 57.5052C20.1727 57.1221 20.1147 56.778 19.9988 56.473C19.8854 56.168 19.7139 55.9273 19.4846 55.7508C19.2577 55.5744 18.9741 55.4862 18.6338 55.4862C18.3062 55.4862 18.0289 55.5706 17.802 55.7395C17.5777 55.9084 17.4075 56.1441 17.2916 56.4465C17.1756 56.749 17.1177 57.1019 17.1177 57.5052ZM22.5812 62.5869V54.6014H23.6853V55.5429H23.7798C23.8453 55.4219 23.9398 55.282 24.0633 55.1232C24.1869 54.9644 24.3583 54.8258 24.5776 54.7073C24.7969 54.5863 25.0867 54.5258 25.4472 54.5258C25.916 54.5258 26.3345 54.6443 26.7025 54.8812C27.0705 55.1182 27.3591 55.4597 27.5683 55.9059C27.7801 56.352 27.8859 56.8889 27.8859 57.5166C27.8859 58.1442 27.7813 58.6824 27.5721 59.1311C27.3629 59.5772 27.0755 59.9213 26.71 60.1633C26.3445 60.4027 25.9274 60.5225 25.4585 60.5225C25.1056 60.5225 24.817 60.4632 24.5927 60.3448C24.3709 60.2263 24.1969 60.0876 24.0709 59.9288C23.9449 59.77 23.8478 59.6289 23.7798 59.5054H23.7117V62.5869H22.5812ZM23.689 57.5052C23.689 57.9136 23.7483 58.2715 23.8667 58.579C23.9852 58.8865 24.1566 59.1273 24.381 59.3012C24.6053 59.4726 24.88 59.5583 25.2052 59.5583C25.543 59.5583 25.8253 59.4688 26.0522 59.2899C26.279 59.1084 26.4504 58.8626 26.5664 58.5526C26.6848 58.2425 26.7441 57.8934 26.7441 57.5052C26.7441 57.1221 26.6861 56.778 26.5701 56.473C26.4567 56.168 26.2853 55.9273 26.0559 55.7508C25.8291 55.5744 25.5455 55.4862 25.2052 55.4862C24.8775 55.4862 24.6003 55.5706 24.3734 55.7395C24.1491 55.9084 23.9789 56.1441 23.863 56.4465C23.747 56.749 23.689 57.1019 23.689 57.5052ZM33.5045 56.0193L32.4798 56.2008C32.437 56.0697 32.3689 55.9449 32.2757 55.8265C32.1849 55.708 32.0614 55.6109 31.9051 55.5353C31.7489 55.4597 31.5535 55.4219 31.3191 55.4219C30.999 55.4219 30.7318 55.4937 30.5175 55.6374C30.3032 55.7786 30.1961 55.9613 30.1961 56.1857C30.1961 56.3797 30.268 56.536 30.4116 56.6545C30.5553 56.773 30.7872 56.87 31.1073 56.9456L32.0299 57.1574C32.5643 57.2809 32.9625 57.4712 33.2247 57.7283C33.4868 57.9854 33.6179 58.3194 33.6179 58.7303C33.6179 59.0781 33.5171 59.3882 33.3154 59.6604C33.1163 59.9301 32.8378 60.1418 32.4798 60.2956C32.1244 60.4494 31.7123 60.5262 31.2435 60.5262C30.5931 60.5262 30.0625 60.3876 29.6517 60.1103C29.2408 59.8305 28.9887 59.4335 28.8955 58.9193L29.9882 58.753C30.0562 59.0378 30.1961 59.2533 30.4079 59.3995C30.6196 59.5432 30.8956 59.615 31.2359 59.615C31.6064 59.615 31.9026 59.5381 32.1244 59.3844C32.3462 59.2281 32.4572 59.0378 32.4572 58.8134C32.4572 58.632 32.3891 58.4795 32.253 58.3559C32.1194 58.2324 31.914 58.1392 31.6367 58.0762L30.6536 57.8606C30.1117 57.7371 29.7109 57.5405 29.4513 57.2708C29.1942 57.0011 29.0656 56.6595 29.0656 56.2462C29.0656 55.9033 29.1614 55.6034 29.353 55.3463C29.5445 55.0892 29.8092 54.8888 30.147 54.7451C30.4847 54.5989 30.8717 54.5258 31.3077 54.5258C31.9354 54.5258 32.4294 54.6619 32.7899 54.9341C33.1503 55.2039 33.3885 55.5656 33.5045 56.0193Z" fill="#FCFCFD"/>
<defs>
<filter id="filter0_b_1_29639" x="-50.6719" y="-50.1756" width="143.933" height="143.933" filterUnits="userSpaceOnUse" color-interpolation-filters="sRGB">
<feFlood flood-opacity="0" result="BackgroundImageFix"/>
<feGaussianBlur in="BackgroundImageFix" stdDeviation="25.3359"/>
<feComposite in2="SourceAlpha" operator="in" result="effect1_backgroundBlur_1_29639"/>
<feBlend mode="normal" in="SourceGraphic" in2="effect1_backgroundBlur_1_29639" result="shape"/>
</filter>
<clipPath id="clip0_1_29639">
<rect y="0.496277" width="42.5891" height="42.5891" rx="21.2946" fill="white"/>
</clipPath>
</defs>
</svg>
