<svg width="44" height="65" viewBox="0 0 44 65" fill="none" xmlns="http://www.w3.org/2000/svg">
<g filter="url(#filter0_b_1_29649)">
<rect x="0.589111" y="0.496277" width="42.5891" height="42.5891" rx="21.2946" fill="url(#paint0_linear_1_29649)"/>
<path d="M25.4327 12.9181V16.4672M18.3346 12.9181V16.4672M13.8982 20.0163H29.8691M15.6727 14.6926H28.0946C29.0746 14.6926 29.8691 15.4871 29.8691 16.4672V28.889C29.8691 29.8691 29.0746 30.6636 28.0946 30.6636H15.6727C14.6927 30.6636 13.8982 29.8691 13.8982 28.889V16.4672C13.8982 15.4871 14.6927 14.6926 15.6727 14.6926Z" stroke="white" stroke-width="1.77455" stroke-linecap="round" stroke-linejoin="round"/>
<rect x="0.921839" y="0.829004" width="41.9237" height="41.9237" rx="20.9618" stroke="url(#paint1_linear_1_29649)" stroke-width="0.665455"/>
</g>
<path d="M5.23451 60.409V52.6656H10.0893V53.6713H6.40284V56.0306H9.83598V57.0326H6.40284V59.4033H10.1347V60.409H5.23451ZM16.5274 54.6014L14.4214 60.409H13.2115L11.1017 54.6014H12.3154L13.7862 59.0706H13.8467L15.3137 54.6014H16.5274ZM19.8953 60.5262C19.3231 60.5262 18.8303 60.404 18.4169 60.1595C18.0061 59.9125 17.6885 59.5659 17.4641 59.1197C17.2423 58.671 17.1314 58.1455 17.1314 57.543C17.1314 56.9482 17.2423 56.4239 17.4641 55.9701C17.6885 55.5164 18.001 55.1623 18.4018 54.9077C18.8051 54.6531 19.2765 54.5258 19.8159 54.5258C20.1436 54.5258 20.4612 54.58 20.7687 54.6884C21.0762 54.7968 21.3523 54.9669 21.5968 55.1988C21.8413 55.4307 22.0341 55.7319 22.1753 56.1025C22.3164 56.4705 22.387 56.9179 22.387 57.4447V57.8455H17.7704V56.9986H21.2792C21.2792 56.7011 21.2187 56.4377 21.0977 56.2083C20.9767 55.9764 20.8065 55.7937 20.5872 55.6601C20.3705 55.5265 20.1159 55.4597 19.8235 55.4597C19.5059 55.4597 19.2286 55.5378 18.9917 55.6941C18.7572 55.8479 18.5757 56.0495 18.4472 56.2991C18.3212 56.5461 18.2581 56.8146 18.2581 57.1044V57.7661C18.2581 58.1543 18.3262 58.4845 18.4623 58.7567C18.601 59.029 18.7938 59.2369 19.0408 59.3806C19.2878 59.5218 19.5765 59.5923 19.9067 59.5923C20.1209 59.5923 20.3163 59.5621 20.4927 59.5016C20.6692 59.4386 20.8217 59.3453 20.9502 59.2218C21.0788 59.0983 21.1771 58.9458 21.2451 58.7643L22.3152 58.9571C22.2294 59.2722 22.0757 59.5482 21.8539 59.7852C21.6346 60.0196 21.3586 60.2023 21.0258 60.3334C20.6956 60.462 20.3188 60.5262 19.8953 60.5262ZM24.7719 56.9608V60.409H23.6413V54.6014H24.7265V55.5467H24.7983C24.9319 55.2391 25.1411 54.9921 25.426 54.8056C25.7133 54.6191 26.075 54.5258 26.5111 54.5258C26.9069 54.5258 27.2534 54.609 27.5509 54.7753C27.8483 54.9392 28.079 55.1837 28.2428 55.5089C28.4066 55.834 28.4886 56.2361 28.4886 56.715V60.409H27.3581V56.8511C27.3581 56.4302 27.2484 56.1012 27.0291 55.8643C26.8098 55.6248 26.5086 55.5051 26.1254 55.5051C25.8633 55.5051 25.6301 55.5618 25.426 55.6752C25.2243 55.7887 25.0643 55.955 24.9458 56.1743C24.8298 56.3911 24.7719 56.6532 24.7719 56.9608ZM32.7157 54.6014V55.5089H29.5435V54.6014H32.7157ZM30.3942 53.21H31.5247V58.7038C31.5247 58.9231 31.5575 59.0882 31.623 59.1991C31.6886 59.3075 31.773 59.3819 31.8763 59.4222C31.9822 59.46 32.0969 59.4789 32.2204 59.4789C32.3112 59.4789 32.3906 59.4726 32.4586 59.46C32.5267 59.4474 32.5796 59.4373 32.6174 59.4297L32.8216 60.3637C32.7561 60.3889 32.6628 60.4141 32.5418 60.4393C32.4208 60.467 32.2696 60.4821 32.0881 60.4846C31.7906 60.4897 31.5134 60.4368 31.2563 60.3258C30.9992 60.2149 30.7912 60.0435 30.6324 59.8116C30.4736 59.5797 30.3942 59.2886 30.3942 58.9382V53.21ZM38.2246 56.0193L37.2 56.2008C37.1571 56.0697 37.0891 55.9449 36.9958 55.8265C36.9051 55.708 36.7816 55.6109 36.6253 55.5353C36.469 55.4597 36.2736 55.4219 36.0392 55.4219C35.7191 55.4219 35.4519 55.4937 35.2376 55.6374C35.0234 55.7786 34.9163 55.9613 34.9163 56.1857C34.9163 56.3797 34.9881 56.536 35.1318 56.6545C35.2755 56.773 35.5074 56.87 35.8275 56.9456L36.75 57.1574C37.2844 57.2809 37.6827 57.4712 37.9448 57.7283C38.207 57.9854 38.3381 58.3194 38.3381 58.7303C38.3381 59.0781 38.2372 59.3882 38.0356 59.6604C37.8364 59.9301 37.5579 60.1418 37.2 60.2956C36.8446 60.4494 36.4324 60.5262 35.9636 60.5262C35.3133 60.5262 34.7827 60.3876 34.3718 60.1103C33.9609 59.8305 33.7089 59.4335 33.6156 58.9193L34.7083 58.753C34.7764 59.0378 34.9163 59.2533 35.128 59.3995C35.3397 59.5432 35.6157 59.615 35.956 59.615C36.3266 59.615 36.6227 59.5381 36.8446 59.3844C37.0664 59.2281 37.1773 59.0378 37.1773 58.8134C37.1773 58.632 37.1092 58.4795 36.9731 58.3559C36.8395 58.2324 36.6341 58.1392 36.3568 58.0762L35.3738 57.8606C34.8318 57.7371 34.431 57.5405 34.1714 57.2708C33.9143 57.0011 33.7857 56.6595 33.7857 56.2462C33.7857 55.9033 33.8815 55.6034 34.0731 55.3463C34.2647 55.0892 34.5293 54.8888 34.8671 54.7451C35.2049 54.5989 35.5918 54.5258 36.0279 54.5258C36.6555 54.5258 37.1496 54.6619 37.51 54.9341C37.8705 55.2039 38.1087 55.5656 38.2246 56.0193Z" fill="#FCFCFD"/>
<defs>
<filter id="filter0_b_1_29649" x="-50.0828" y="-50.1756" width="143.933" height="143.933" filterUnits="userSpaceOnUse" color-interpolation-filters="sRGB">
<feFlood flood-opacity="0" result="BackgroundImageFix"/>
<feGaussianBlur in="BackgroundImageFix" stdDeviation="25.3359"/>
<feComposite in2="SourceAlpha" operator="in" result="effect1_backgroundBlur_1_29649"/>
<feBlend mode="normal" in="SourceGraphic" in2="effect1_backgroundBlur_1_29649" result="shape"/>
</filter>
<linearGradient id="paint0_linear_1_29649" x1="7.20564" y1="1.10469" x2="50.9634" y2="22.4033" gradientUnits="userSpaceOnUse">
<stop stop-color="#EFEFEF" stop-opacity="0.6"/>
<stop offset="1" stop-color="white" stop-opacity="0.08"/>
</linearGradient>
<linearGradient id="paint1_linear_1_29649" x1="2.71857" y1="3.96425" x2="47.9727" y2="20.8214" gradientUnits="userSpaceOnUse">
<stop stop-color="white" stop-opacity="0.6"/>
<stop offset="1" stop-color="white" stop-opacity="0.1"/>
</linearGradient>
</defs>
</svg>
