<svg width="60" height="64" viewBox="0 0 60 64" fill="none" xmlns="http://www.w3.org/2000/svg">
<g filter="url(#filter0_b_1_29635)">
<rect x="8.70532" width="42.5891" height="42.5891" rx="21.2946" fill="url(#paint0_linear_1_29635)"/>
<g clip-path="url(#clip0_1_29635)">
<path d="M34.4361 29.28V27.5055C34.4361 26.5642 34.0622 25.6615 33.3966 24.9959C32.731 24.3303 31.8283 23.9564 30.887 23.9564H23.7888C22.8476 23.9564 21.9448 24.3303 21.2793 24.9959C20.6137 25.6615 20.2397 26.5642 20.2397 27.5055V29.28M39.7598 29.28V27.5055C39.7592 26.7191 39.4974 25.9552 39.0157 25.3337C38.5339 24.7122 37.8593 24.2683 37.0979 24.0717M33.5488 13.4244C34.3123 13.6199 34.9889 14.0639 35.4721 14.6864C35.9553 15.3089 36.2176 16.0746 36.2176 16.8626C36.2176 17.6507 35.9553 18.4163 35.4721 19.0388C34.9889 19.6614 34.3123 20.1053 33.5488 20.3008M30.887 16.8582C30.887 18.8183 29.298 20.4073 27.3379 20.4073C25.3778 20.4073 23.7888 18.8183 23.7888 16.8582C23.7888 14.8981 25.3778 13.3091 27.3379 13.3091C29.298 13.3091 30.887 14.8981 30.887 16.8582Z" stroke="white" stroke-width="1.77455" stroke-linecap="round" stroke-linejoin="round"/>
</g>
<rect x="9.03805" y="0.332727" width="41.9237" height="41.9237" rx="20.9618" stroke="url(#paint1_linear_1_29635)" stroke-width="0.665455"/>
</g>
<path d="M0.850724 59.9128V52.1693H5.65259V53.175H2.01905V55.5344H5.30852V56.5363H2.01905V59.9128H0.850724ZM6.92584 59.9128V54.1051H8.01854V55.0277H8.07904C8.18491 54.7151 8.37144 54.4694 8.63863 54.2904C8.90834 54.1089 9.21334 54.0182 9.55363 54.0182C9.6242 54.0182 9.70739 54.0207 9.80317 54.0257C9.90148 54.0308 9.97836 54.0371 10.0338 54.0446V55.126C9.98844 55.1134 9.90778 55.0995 9.79183 55.0844C9.67588 55.0668 9.55993 55.058 9.44398 55.058C9.17679 55.058 8.93858 55.1147 8.72937 55.2281C8.52268 55.339 8.35883 55.494 8.23784 55.6932C8.11685 55.8898 8.05635 56.1141 8.05635 56.3662V59.9128H6.92584ZM13.3072 60.03C12.735 60.03 12.2422 59.9077 11.8288 59.6632C11.418 59.4162 11.1004 59.0696 10.876 58.6234C10.6542 58.1748 10.5433 57.6492 10.5433 57.0468C10.5433 56.4519 10.6542 55.9276 10.876 55.4739C11.1004 55.0201 11.4129 54.666 11.8137 54.4114C12.217 54.1568 12.6884 54.0295 13.2278 54.0295C13.5555 54.0295 13.8731 54.0837 14.1806 54.1921C14.4881 54.3005 14.7642 54.4706 15.0087 54.7025C15.2532 54.9344 15.446 55.2357 15.5871 55.6062C15.7283 55.9742 15.7989 56.4216 15.7989 56.9485V57.3492H11.1823V56.5023H14.6911C14.6911 56.2049 14.6306 55.9414 14.5096 55.7121C14.3886 55.4802 14.2184 55.2974 13.9991 55.1638C13.7824 55.0302 13.5278 54.9634 13.2354 54.9634C12.9178 54.9634 12.6405 55.0416 12.4036 55.1979C12.1691 55.3516 11.9876 55.5533 11.8591 55.8028C11.7331 56.0498 11.67 56.3183 11.67 56.6082V57.2698C11.67 57.658 11.7381 57.9882 11.8742 58.2605C12.0128 58.5327 12.2057 58.7406 12.4527 58.8843C12.6997 59.0255 12.9883 59.0961 13.3186 59.0961C13.5328 59.0961 13.7282 59.0658 13.9046 59.0053C14.0811 58.9423 14.2336 58.849 14.3621 58.7255C14.4907 58.602 14.589 58.4495 14.657 58.268L15.727 58.4608C15.6413 58.7759 15.4876 59.0519 15.2658 59.2889C15.0465 59.5233 14.7705 59.7061 14.4377 59.8371C14.1075 59.9657 13.7307 60.03 13.3072 60.03ZM19.5562 60.03C18.9841 60.03 18.4913 59.9077 18.0779 59.6632C17.667 59.4162 17.3494 59.0696 17.1251 58.6234C16.9032 58.1748 16.7923 57.6492 16.7923 57.0468C16.7923 56.4519 16.9032 55.9276 17.1251 55.4739C17.3494 55.0201 17.662 54.666 18.0628 54.4114C18.4661 54.1568 18.9374 54.0295 19.4768 54.0295C19.8045 54.0295 20.1221 54.0837 20.4297 54.1921C20.7372 54.3005 21.0132 54.4706 21.2577 54.7025C21.5022 54.9344 21.695 55.2357 21.8362 55.6062C21.9773 55.9742 22.0479 56.4216 22.0479 56.9485V57.3492H17.4313V56.5023H20.9401C20.9401 56.2049 20.8796 55.9414 20.7586 55.7121C20.6376 55.4802 20.4675 55.2974 20.2482 55.1638C20.0314 55.0302 19.7768 54.9634 19.4844 54.9634C19.1668 54.9634 18.8895 55.0416 18.6526 55.1979C18.4182 55.3516 18.2367 55.5533 18.1081 55.8028C17.9821 56.0498 17.9191 56.3183 17.9191 56.6082V57.2698C17.9191 57.658 17.9871 57.9882 18.1232 58.2605C18.2619 58.5327 18.4547 58.7406 18.7017 58.8843C18.9488 59.0255 19.2374 59.0961 19.5676 59.0961C19.7818 59.0961 19.9772 59.0658 20.1536 59.0053C20.3301 58.9423 20.4826 58.849 20.6111 58.7255C20.7397 58.602 20.838 58.4495 20.9061 58.268L21.9761 58.4608C21.8904 58.7759 21.7366 59.0519 21.5148 59.2889C21.2955 59.5233 21.0195 59.7061 20.6868 59.8371C20.3566 59.9657 19.9797 60.03 19.5562 60.03ZM24.4328 52.1693V59.9128H23.3023V52.1693H24.4328ZM27.6438 60.0413C27.2758 60.0413 26.943 59.9732 26.6456 59.8371C26.3482 59.6985 26.1125 59.4981 25.9386 59.236C25.7672 58.9738 25.6815 58.6524 25.6815 58.2718C25.6815 57.9441 25.7445 57.6744 25.8705 57.4627C25.9965 57.2509 26.1667 57.0833 26.3809 56.9598C26.5952 56.8363 26.8347 56.743 27.0993 56.68C27.364 56.617 27.6337 56.5691 27.9085 56.5363C28.2563 56.496 28.5386 56.4632 28.7554 56.438C28.9722 56.4103 29.1297 56.3662 29.228 56.3057C29.3263 56.2452 29.3755 56.1469 29.3755 56.0108V55.9843C29.3755 55.6541 29.2822 55.3982 29.0957 55.2168C28.9117 55.0353 28.6369 54.9445 28.2714 54.9445C27.8908 54.9445 27.5909 55.029 27.3716 55.1979C27.1548 55.3642 27.0048 55.5495 26.9216 55.7537L25.8592 55.5117C25.9852 55.1588 26.1692 54.8739 26.4112 54.6572C26.6557 54.4379 26.9367 54.2791 27.2544 54.1808C27.572 54.0799 27.9059 54.0295 28.2563 54.0295C28.4882 54.0295 28.734 54.0573 28.9936 54.1127C29.2558 54.1656 29.5003 54.2639 29.7271 54.4076C29.9565 54.5513 30.1443 54.7567 30.2905 55.0239C30.4367 55.2886 30.5098 55.6327 30.5098 56.0561V59.9128H29.4057V59.1187H29.3604C29.2873 59.2649 29.1776 59.4086 29.0314 59.5498C28.8852 59.6909 28.6974 59.8081 28.468 59.9014C28.2387 59.9947 27.9639 60.0413 27.6438 60.0413ZM27.8896 59.1339C28.2021 59.1339 28.4693 59.0721 28.6911 58.9486C28.9155 58.8251 29.0856 58.6638 29.2016 58.4646C29.32 58.263 29.3793 58.0475 29.3793 57.8181V57.0694C29.3389 57.1098 29.2608 57.1476 29.1448 57.1829C29.0314 57.2156 28.9016 57.2446 28.7554 57.2698C28.6092 57.2925 28.4668 57.3139 28.3282 57.3341C28.1895 57.3518 28.0736 57.3669 27.9803 57.3795C27.761 57.4072 27.5606 57.4538 27.3791 57.5194C27.2002 57.5849 27.0565 57.6794 26.9481 57.803C26.8422 57.9239 26.7893 58.0853 26.7893 58.2869C26.7893 58.5667 26.8926 58.7785 27.0993 58.9221C27.306 59.0633 27.5694 59.1339 27.8896 59.1339ZM33.1461 56.4645V59.9128H32.0156V54.1051H33.1007V55.0504H33.1726C33.3061 54.7429 33.5154 54.4958 33.8002 54.3093C34.0876 54.1228 34.4493 54.0295 34.8853 54.0295C35.2811 54.0295 35.6277 54.1127 35.9251 54.2791C36.2226 54.4429 36.4532 54.6874 36.617 55.0126C36.7809 55.3377 36.8628 55.7398 36.8628 56.2187V59.9128H35.7323V56.3548C35.7323 55.9339 35.6226 55.6049 35.4033 55.368C35.184 55.1285 34.8828 55.0088 34.4997 55.0088C34.2375 55.0088 34.0044 55.0655 33.8002 55.1789C33.5985 55.2924 33.4385 55.4587 33.32 55.678C33.2041 55.8948 33.1461 56.157 33.1461 56.4645ZM40.8253 60.03C40.2632 60.03 39.7792 59.9027 39.3734 59.6481C38.9701 59.391 38.66 59.0368 38.4433 58.5856C38.2265 58.1344 38.1181 57.6177 38.1181 57.0354C38.1181 56.4456 38.229 55.9251 38.4508 55.4739C38.6726 55.0201 38.9852 54.666 39.3885 54.4114C39.7918 54.1568 40.267 54.0295 40.8139 54.0295C41.2551 54.0295 41.6483 54.1114 41.9936 54.2753C42.3389 54.4366 42.6175 54.6635 42.8292 54.9559C43.0435 55.2483 43.1708 55.5898 43.2111 55.9805H42.1108C42.0503 55.7083 41.9117 55.4739 41.6949 55.2773C41.4807 55.0806 41.1933 54.9823 40.8328 54.9823C40.5178 54.9823 40.2417 55.0655 40.0048 55.2319C39.7704 55.3957 39.5876 55.6301 39.4566 55.9351C39.3255 56.2376 39.26 56.5956 39.26 57.0089C39.26 57.4324 39.3242 57.7979 39.4528 58.1054C39.5813 58.413 39.7628 58.6512 39.9972 58.82C40.2342 58.9889 40.5127 59.0734 40.8328 59.0734C41.0471 59.0734 41.2412 59.0343 41.4151 58.9562C41.5916 58.8755 41.739 58.7608 41.8575 58.6121C41.9785 58.4634 42.0629 58.2844 42.1108 58.0752H43.2111C43.1708 58.4508 43.0485 58.786 42.8443 59.0809C42.6402 59.3758 42.3667 59.6078 42.0239 59.7766C41.6836 59.9455 41.284 60.03 40.8253 60.03ZM46.9231 60.03C46.3509 60.03 45.8581 59.9077 45.4447 59.6632C45.0338 59.4162 44.7162 59.0696 44.4919 58.6234C44.2701 58.1748 44.1592 57.6492 44.1592 57.0468C44.1592 56.4519 44.2701 55.9276 44.4919 55.4739C44.7162 55.0201 45.0288 54.666 45.4296 54.4114C45.8329 54.1568 46.3043 54.0295 46.8437 54.0295C47.1714 54.0295 47.489 54.0837 47.7965 54.1921C48.104 54.3005 48.38 54.4706 48.6245 54.7025C48.869 54.9344 49.0619 55.2357 49.203 55.6062C49.3442 55.9742 49.4148 56.4216 49.4148 56.9485V57.3492H44.7982V56.5023H48.3069C48.3069 56.2049 48.2464 55.9414 48.1254 55.7121C48.0044 55.4802 47.8343 55.2974 47.615 55.1638C47.3982 55.0302 47.1436 54.9634 46.8512 54.9634C46.5336 54.9634 46.2564 55.0416 46.0194 55.1979C45.785 55.3516 45.6035 55.5533 45.475 55.8028C45.3489 56.0498 45.2859 56.3183 45.2859 56.6082V57.2698C45.2859 57.658 45.354 57.9882 45.4901 58.2605C45.6287 58.5327 45.8216 58.7406 46.0686 58.8843C46.3156 59.0255 46.6042 59.0961 46.9344 59.0961C47.1487 59.0961 47.344 59.0658 47.5205 59.0053C47.6969 58.9423 47.8494 58.849 47.978 58.7255C48.1065 58.602 48.2048 58.4495 48.2729 58.268L49.3429 58.4608C49.2572 58.7759 49.1035 59.0519 48.8816 59.2889C48.6623 59.5233 48.3863 59.7061 48.0536 59.8371C47.7234 59.9657 47.3466 60.03 46.9231 60.03ZM50.6691 59.9128V54.1051H51.7618V55.0277H51.8223C51.9282 54.7151 52.1147 54.4694 52.3819 54.2904C52.6516 54.1089 52.9566 54.0182 53.2969 54.0182C53.3675 54.0182 53.4506 54.0207 53.5464 54.0257C53.6447 54.0308 53.7216 54.0371 53.7771 54.0446V55.126C53.7317 55.1134 53.651 55.0995 53.5351 55.0844C53.4191 55.0668 53.3032 55.058 53.1872 55.058C52.9201 55.058 52.6818 55.1147 52.4726 55.2281C52.2659 55.339 52.1021 55.494 51.9811 55.6932C51.8601 55.8898 51.7996 56.1141 51.7996 56.3662V59.9128H50.6691ZM59.1073 55.523L58.0827 55.7045C58.0398 55.5734 57.9718 55.4487 57.8785 55.3302C57.7878 55.2117 57.6643 55.1147 57.508 55.039C57.3517 54.9634 57.1563 54.9256 56.9219 54.9256C56.6018 54.9256 56.3346 54.9975 56.1203 55.1411C55.9061 55.2823 55.799 55.465 55.799 55.6894C55.799 55.8835 55.8708 56.0398 56.0145 56.1582C56.1582 56.2767 56.3901 56.3737 56.7102 56.4494L57.6327 56.6611C58.1671 56.7846 58.5654 56.9749 58.8275 57.232C59.0897 57.4891 59.2208 57.8231 59.2208 58.234C59.2208 58.5818 59.1199 58.8919 58.9183 59.1641C58.7192 59.4338 58.4406 59.6456 58.0827 59.7993C57.7273 59.9531 57.3151 60.03 56.8463 60.03C56.196 60.03 55.6654 59.8913 55.2545 59.6141C54.8436 59.3343 54.5916 58.9373 54.4983 58.423L55.591 58.2567C55.6591 58.5415 55.799 58.757 56.0107 58.9032C56.2224 59.0469 56.4984 59.1187 56.8387 59.1187C57.2093 59.1187 57.5055 59.0419 57.7273 58.8881C57.9491 58.7318 58.06 58.5415 58.06 58.3172C58.06 58.1357 57.9919 57.9832 57.8558 57.8597C57.7222 57.7362 57.5168 57.6429 57.2395 57.5799L56.2565 57.3644C55.7145 57.2408 55.3137 57.0442 55.0541 56.7745C54.797 56.5048 54.6684 56.1633 54.6684 55.7499C54.6684 55.4071 54.7642 55.1071 54.9558 54.85C55.1474 54.5929 55.412 54.3925 55.7498 54.2488C56.0876 54.1026 56.4745 54.0295 56.9106 54.0295C57.5382 54.0295 58.0323 54.1656 58.3927 54.4379C58.7532 54.7076 58.9914 55.0693 59.1073 55.523Z" fill="#FCFCFD"/>
<defs>
<filter id="filter0_b_1_29635" x="-41.9665" y="-50.6719" width="143.933" height="143.933" filterUnits="userSpaceOnUse" color-interpolation-filters="sRGB">
<feFlood flood-opacity="0" result="BackgroundImageFix"/>
<feGaussianBlur in="BackgroundImageFix" stdDeviation="25.3359"/>
<feComposite in2="SourceAlpha" operator="in" result="effect1_backgroundBlur_1_29635"/>
<feBlend mode="normal" in="SourceGraphic" in2="effect1_backgroundBlur_1_29635" result="shape"/>
</filter>
<linearGradient id="paint0_linear_1_29635" x1="15.3218" y1="0.608415" x2="59.0796" y2="21.907" gradientUnits="userSpaceOnUse">
<stop stop-color="#EFEFEF" stop-opacity="0.6"/>
<stop offset="1" stop-color="white" stop-opacity="0.08"/>
</linearGradient>
<linearGradient id="paint1_linear_1_29635" x1="10.8348" y1="3.46797" x2="56.0889" y2="20.3251" gradientUnits="userSpaceOnUse">
<stop stop-color="white" stop-opacity="0.6"/>
<stop offset="1" stop-color="white" stop-opacity="0.1"/>
</linearGradient>
<clipPath id="clip0_1_29635">
<rect width="21.2946" height="21.2946" fill="white" transform="translate(19.3525 10.6473)"/>
</clipPath>
</defs>
</svg>
