<svg width="43" height="65" viewBox="0 0 43 65" fill="none" xmlns="http://www.w3.org/2000/svg">
<g filter="url(#filter0_b_1_29653)">
<rect x="0.178223" y="0.496277" width="42.5891" height="42.5891" rx="21.2946" fill="url(#paint0_linear_1_29653)"/>
<path d="M25.0219 29.7763V15.5799C25.0219 15.1093 24.835 14.6579 24.5022 14.3251C24.1694 13.9923 23.718 13.8054 23.2474 13.8054H19.6983C19.2276 13.8054 18.7763 13.9923 18.4435 14.3251C18.1107 14.6579 17.9237 15.1093 17.9237 15.5799V29.7763M14.3746 17.3545H28.571C29.5511 17.3545 30.3456 18.149 30.3456 19.129V28.0017C30.3456 28.9818 29.5511 29.7763 28.571 29.7763H14.3746C13.3946 29.7763 12.6001 28.9818 12.6001 28.0017V19.129C12.6001 18.149 13.3946 17.3545 14.3746 17.3545Z" stroke="white" stroke-width="1.77455" stroke-linecap="round" stroke-linejoin="round"/>
<rect x="0.51095" y="0.829004" width="41.9237" height="41.9237" rx="20.9618" stroke="url(#paint1_linear_1_29653)" stroke-width="0.665455"/>
</g>
<path d="M12.8333 52.6656H13.9978V58.1556C13.9978 58.6521 13.8995 59.0769 13.7029 59.4297C13.5088 59.7826 13.2353 60.0524 12.8824 60.2389C12.5296 60.4229 12.1162 60.5149 11.6423 60.5149C11.2062 60.5149 10.8142 60.4355 10.4664 60.2767C10.1211 60.1179 9.84757 59.8872 9.64592 59.5848C9.44678 59.2798 9.34722 58.9092 9.34722 58.4732H10.508C10.508 58.6874 10.5571 58.8727 10.6554 59.029C10.7563 59.1852 10.8936 59.3075 11.0676 59.3957C11.244 59.4814 11.4457 59.5243 11.6725 59.5243C11.9196 59.5243 12.1288 59.4726 12.3002 59.3693C12.4741 59.2634 12.6064 59.1084 12.6972 58.9042C12.7879 58.7 12.8333 58.4505 12.8333 58.1556V52.6656ZM18.0539 60.5262C17.5094 60.5262 17.0343 60.4015 16.6285 60.1519C16.2226 59.9024 15.9076 59.5533 15.6832 59.1046C15.4589 58.6559 15.3467 58.1316 15.3467 57.5317C15.3467 56.9293 15.4589 56.4024 15.6832 55.9512C15.9076 55.5 16.2226 55.1497 16.6285 54.9001C17.0343 54.6506 17.5094 54.5258 18.0539 54.5258C18.5984 54.5258 19.0735 54.6506 19.4793 54.9001C19.8852 55.1497 20.2002 55.5 20.4246 55.9512C20.6489 56.4024 20.7611 56.9293 20.7611 57.5317C20.7611 58.1316 20.6489 58.6559 20.4246 59.1046C20.2002 59.5533 19.8852 59.9024 19.4793 60.1519C19.0735 60.4015 18.5984 60.5262 18.0539 60.5262ZM18.0577 59.5772C18.4106 59.5772 18.703 59.4839 18.9349 59.2974C19.1668 59.1109 19.3382 58.8626 19.4491 58.5526C19.5625 58.2425 19.6192 57.901 19.6192 57.5279C19.6192 57.1574 19.5625 56.8171 19.4491 56.507C19.3382 56.1945 19.1668 55.9437 18.9349 55.7546C18.703 55.5656 18.4106 55.471 18.0577 55.471C17.7023 55.471 17.4074 55.5656 17.1729 55.7546C16.941 55.9437 16.7684 56.1945 16.6549 56.507C16.544 56.8171 16.4886 57.1574 16.4886 57.5279C16.4886 57.901 16.544 58.2425 16.6549 58.5526C16.7684 58.8626 16.941 59.1109 17.1729 59.2974C17.4074 59.4839 17.7023 59.5772 18.0577 59.5772ZM22.1137 60.409V52.6656H23.2443V55.5429H23.3123C23.3779 55.4219 23.4724 55.282 23.5959 55.1232C23.7194 54.9644 23.8908 54.8258 24.1101 54.7073C24.3294 54.5863 24.6193 54.5258 24.9797 54.5258C25.4486 54.5258 25.867 54.6443 26.235 54.8812C26.603 55.1182 26.8917 55.4597 27.1009 55.9059C27.3126 56.352 27.4185 56.8889 27.4185 57.5166C27.4185 58.1442 27.3139 58.6824 27.1047 59.1311C26.8954 59.5772 26.6081 59.9213 26.2426 60.1633C25.8771 60.4027 25.4599 60.5225 24.9911 60.5225C24.6382 60.5225 24.3496 60.4632 24.1252 60.3448C23.9034 60.2263 23.7295 60.0876 23.6035 59.9288C23.4774 59.77 23.3804 59.6289 23.3123 59.5054H23.2178V60.409H22.1137ZM23.2216 57.5052C23.2216 57.9136 23.2808 58.2715 23.3993 58.579C23.5178 58.8865 23.6892 59.1273 23.9135 59.3012C24.1378 59.4726 24.4126 59.5583 24.7378 59.5583C25.0755 59.5583 25.3578 59.4688 25.5847 59.2899C25.8116 59.1084 25.983 58.8626 26.0989 58.5526C26.2174 58.2425 26.2766 57.8934 26.2766 57.5052C26.2766 57.1221 26.2186 56.778 26.1027 56.473C25.9893 56.168 25.8179 55.9273 25.5885 55.7508C25.3616 55.5744 25.078 55.4862 24.7378 55.4862C24.4101 55.4862 24.1328 55.5706 23.9059 55.7395C23.6816 55.9084 23.5115 56.1441 23.3955 56.4465C23.2796 56.749 23.2216 57.1019 23.2216 57.5052ZM33.0399 56.0193L32.0152 56.2008C31.9724 56.0697 31.9043 55.9449 31.811 55.8265C31.7203 55.708 31.5968 55.6109 31.4405 55.5353C31.2842 55.4597 31.0889 55.4219 30.8545 55.4219C30.5343 55.4219 30.2671 55.4937 30.0529 55.6374C29.8386 55.7786 29.7315 55.9613 29.7315 56.1857C29.7315 56.3797 29.8033 56.536 29.947 56.6545C30.0907 56.773 30.3226 56.87 30.6427 56.9456L31.5653 57.1574C32.0997 57.2809 32.4979 57.4712 32.7601 57.7283C33.0222 57.9854 33.1533 58.3194 33.1533 58.7303C33.1533 59.0781 33.0525 59.3882 32.8508 59.6604C32.6517 59.9301 32.3732 60.1418 32.0152 60.2956C31.6598 60.4494 31.2477 60.5262 30.7788 60.5262C30.1285 60.5262 29.5979 60.3876 29.187 60.1103C28.7762 59.8305 28.5241 59.4335 28.4308 58.9193L29.5235 58.753C29.5916 59.0378 29.7315 59.2533 29.9432 59.3995C30.155 59.5432 30.431 59.615 30.7713 59.615C31.1418 59.615 31.438 59.5381 31.6598 59.3844C31.8816 59.2281 31.9925 59.0378 31.9925 58.8134C31.9925 58.632 31.9245 58.4795 31.7884 58.3559C31.6548 58.2324 31.4493 58.1392 31.1721 58.0762L30.189 57.8606C29.6471 57.7371 29.2463 57.5405 28.9866 57.2708C28.7295 57.0011 28.601 56.6595 28.601 56.2462C28.601 55.9033 28.6968 55.6034 28.8883 55.3463C29.0799 55.0892 29.3446 54.8888 29.6823 54.7451C30.0201 54.5989 30.407 54.5258 30.8431 54.5258C31.4708 54.5258 31.9648 54.6619 32.3253 54.9341C32.6857 55.2039 32.9239 55.5656 33.0399 56.0193Z" fill="#FCFCFD"/>
<defs>
<filter id="filter0_b_1_29653" x="-50.4936" y="-50.1756" width="143.933" height="143.933" filterUnits="userSpaceOnUse" color-interpolation-filters="sRGB">
<feFlood flood-opacity="0" result="BackgroundImageFix"/>
<feGaussianBlur in="BackgroundImageFix" stdDeviation="25.3359"/>
<feComposite in2="SourceAlpha" operator="in" result="effect1_backgroundBlur_1_29653"/>
<feBlend mode="normal" in="SourceGraphic" in2="effect1_backgroundBlur_1_29653" result="shape"/>
</filter>
<linearGradient id="paint0_linear_1_29653" x1="6.79475" y1="1.10469" x2="50.5526" y2="22.4033" gradientUnits="userSpaceOnUse">
<stop stop-color="#EFEFEF" stop-opacity="0.6"/>
<stop offset="1" stop-color="white" stop-opacity="0.08"/>
</linearGradient>
<linearGradient id="paint1_linear_1_29653" x1="2.30768" y1="3.96425" x2="47.5618" y2="20.8214" gradientUnits="userSpaceOnUse">
<stop stop-color="white" stop-opacity="0.6"/>
<stop offset="1" stop-color="white" stop-opacity="0.1"/>
</linearGradient>
</defs>
</svg>
