<svg width="65" height="65" viewBox="0 0 65 65" fill="none" xmlns="http://www.w3.org/2000/svg">
<g filter="url(#filter0_b_1_29657)">
<rect x="11.52" y="0.496277" width="42.4946" height="42.6838" rx="21.2473" fill="url(#paint0_linear_1_29657)"/>
<path d="M22.4756 13.168H25.6949L27.8518 23.9926C27.9254 24.3647 28.127 24.6991 28.4213 24.937C28.7155 25.175 29.0837 25.3014 29.4614 25.2941H37.2843C37.662 25.3014 38.0303 25.175 38.3245 24.937C38.6188 24.6991 38.8204 24.3647 38.894 23.9926L40.1817 17.21H26.4997M29.719 29.3361C29.719 29.7826 29.3587 30.1445 28.9142 30.1445C28.4697 30.1445 28.1093 29.7826 28.1093 29.3361C28.1093 28.8896 28.4697 28.5277 28.9142 28.5277C29.3587 28.5277 29.719 28.8896 29.719 29.3361ZM38.572 29.3361C38.572 29.7826 38.2117 30.1445 37.7672 30.1445C37.3227 30.1445 36.9624 29.7826 36.9624 29.3361C36.9624 28.8896 37.3227 28.5277 37.7672 28.5277C38.2117 28.5277 38.572 28.8896 38.572 29.3361Z" stroke="white" stroke-width="1.61322" stroke-linecap="round" stroke-linejoin="round"/>
<rect x="11.8527" y="0.829004" width="41.8292" height="42.0183" rx="20.9146" stroke="url(#paint1_linear_1_29657)" stroke-width="0.665455"/>
</g>
<path d="M1.61806 52.7602H3.03593L5.50114 58.7796H5.59188L8.05709 52.7602H9.47496V60.5037H8.36335V54.9003H8.29151L6.00779 60.4924H5.08523L2.80151 54.8965H2.72967V60.5037H1.61806V52.7602ZM12.7729 60.6323C12.4049 60.6323 12.0722 60.5642 11.7748 60.4281C11.4773 60.2895 11.2416 60.0891 11.0677 59.8269C10.8963 59.5648 10.8106 59.2434 10.8106 58.8628C10.8106 58.5351 10.8736 58.2654 10.9996 58.0536C11.1257 57.8419 11.2958 57.6743 11.5101 57.5508C11.7243 57.4272 11.9638 57.334 12.2285 57.271C12.4931 57.2079 12.7629 57.16 13.0376 57.1273C13.3855 57.0869 13.6678 57.0542 13.8845 57.029C14.1013 57.0012 14.2589 56.9571 14.3572 56.8966C14.4555 56.8361 14.5046 56.7378 14.5046 56.6017V56.5753C14.5046 56.245 14.4114 55.9892 14.2248 55.8077C14.0408 55.6262 13.7661 55.5355 13.4006 55.5355C13.02 55.5355 12.72 55.6199 12.5007 55.7888C12.2839 55.9552 12.1339 56.1404 12.0508 56.3446L10.9883 56.1026C11.1143 55.7497 11.2983 55.4649 11.5403 55.2481C11.7848 55.0288 12.0659 54.87 12.3835 54.7717C12.7011 54.6709 13.0351 54.6205 13.3855 54.6205C13.6174 54.6205 13.8631 54.6482 14.1228 54.7037C14.3849 54.7566 14.6294 54.8549 14.8563 54.9986C15.0856 55.1423 15.2734 55.3477 15.4196 55.6149C15.5658 55.8796 15.6389 56.2236 15.6389 56.6471V60.5037H14.5349V59.7097H14.4895C14.4164 59.8559 14.3068 59.9996 14.1606 60.1407C14.0144 60.2819 13.8266 60.3991 13.5972 60.4924C13.3678 60.5856 13.0931 60.6323 12.7729 60.6323ZM13.0187 59.7248C13.3313 59.7248 13.5985 59.6631 13.8203 59.5396C14.0446 59.416 14.2148 59.2547 14.3307 59.0556C14.4492 58.8539 14.5084 58.6384 14.5084 58.409V57.6604C14.4681 57.7007 14.3899 57.7385 14.274 57.7738C14.1606 57.8066 14.0307 57.8356 13.8845 57.8608C13.7383 57.8835 13.5959 57.9049 13.4573 57.9251C13.3187 57.9427 13.2027 57.9578 13.1094 57.9704C12.8901 57.9982 12.6898 58.0448 12.5083 58.1103C12.3293 58.1759 12.1856 58.2704 12.0772 58.3939C11.9714 58.5149 11.9184 58.6762 11.9184 58.8779C11.9184 59.1577 12.0218 59.3694 12.2285 59.5131C12.4352 59.6542 12.6986 59.7248 13.0187 59.7248ZM17.1447 60.5037V54.6961H18.2374V55.6187H18.2979C18.4038 55.3061 18.5903 55.0603 18.8575 54.8814C19.1272 54.6999 19.4322 54.6091 19.7725 54.6091C19.8431 54.6091 19.9263 54.6117 20.022 54.6167C20.1204 54.6217 20.1972 54.628 20.2527 54.6356V55.717C20.2073 55.7044 20.1267 55.6905 20.0107 55.6754C19.8948 55.6577 19.7788 55.6489 19.6629 55.6489C19.3957 55.6489 19.1575 55.7056 18.9482 55.8191C18.7415 55.93 18.5777 56.085 18.4567 56.2841C18.3357 56.4807 18.2752 56.7051 18.2752 56.9571V60.5037H17.1447ZM22.2708 58.5338L22.2632 57.1537H22.4598L24.7738 54.6961H26.1274L23.4883 57.494H23.3106L22.2708 58.5338ZM21.231 60.5037V52.7602H22.3615V60.5037H21.231ZM24.8986 60.5037L22.819 57.7436L23.5979 56.9534L26.2862 60.5037H24.8986ZM29.4216 60.6209C28.8494 60.6209 28.3566 60.4987 27.9432 60.2542C27.5324 60.0071 27.2148 59.6605 26.9904 59.2144C26.7686 58.7657 26.6577 58.2402 26.6577 57.6377C26.6577 57.0428 26.7686 56.5185 26.9904 56.0648C27.2148 55.6111 27.5273 55.2569 27.9281 55.0024C28.3314 54.7478 28.8028 54.6205 29.3422 54.6205C29.6699 54.6205 29.9875 54.6747 30.295 54.7831C30.6025 54.8915 30.8785 55.0616 31.123 55.2935C31.3675 55.5254 31.5604 55.8266 31.7015 56.1972C31.8427 56.5652 31.9133 57.0126 31.9133 57.5394V57.9402H27.2967V57.0933H30.8054C30.8054 56.7958 30.7449 56.5324 30.624 56.303C30.503 56.0711 30.3328 55.8884 30.1135 55.7548C29.8967 55.6212 29.6422 55.5544 29.3498 55.5544C29.0322 55.5544 28.7549 55.6325 28.5179 55.7888C28.2835 55.9426 28.102 56.1442 27.9735 56.3938C27.8474 56.6408 27.7844 56.9092 27.7844 57.1991V57.8608C27.7844 58.249 27.8525 58.5792 27.9886 58.8514C28.1272 59.1236 28.3201 59.3316 28.5671 59.4753C28.8141 59.6164 29.1027 59.687 29.4329 59.687C29.6472 59.687 29.8425 59.6568 30.019 59.5963C30.1954 59.5333 30.3479 59.44 30.4765 59.3165C30.605 59.193 30.7034 59.0405 30.7714 58.859L31.8414 59.0518C31.7557 59.3669 31.602 59.6429 31.3802 59.8798C31.1609 60.1143 30.8848 60.297 30.5521 60.4281C30.2219 60.5566 29.8451 60.6209 29.4216 60.6209ZM35.8786 54.6961V55.6035H32.7063V54.6961H35.8786ZM33.5571 53.3047H34.6876V58.7985C34.6876 59.0178 34.7203 59.1829 34.7859 59.2938C34.8514 59.4022 34.9359 59.4765 35.0392 59.5169C35.1451 59.5547 35.2598 59.5736 35.3833 59.5736C35.474 59.5736 35.5534 59.5673 35.6215 59.5547C35.6895 59.5421 35.7425 59.532 35.7803 59.5244L35.9845 60.4583C35.9189 60.4835 35.8257 60.5087 35.7047 60.534C35.5837 60.5617 35.4324 60.5768 35.2509 60.5793C34.9535 60.5844 34.6762 60.5314 34.4191 60.4205C34.162 60.3096 33.9541 60.1382 33.7953 59.9063C33.6365 59.6744 33.5571 59.3833 33.5571 59.0329V53.3047ZM37.1292 62.6816V54.6961H38.2332V55.6376H38.3277C38.3933 55.5166 38.4878 55.3767 38.6113 55.2179C38.7348 55.0591 38.9062 54.9204 39.1255 54.802C39.3448 54.681 39.6347 54.6205 39.9951 54.6205C40.464 54.6205 40.8824 54.739 41.2504 54.9759C41.6185 55.2128 41.9071 55.5544 42.1163 56.0005C42.328 56.4467 42.4339 56.9836 42.4339 57.6112C42.4339 58.2389 42.3293 58.7771 42.1201 59.2257C41.9108 59.6719 41.6235 60.016 41.258 60.2579C40.8925 60.4974 40.4753 60.6171 40.0065 60.6171C39.6536 60.6171 39.365 60.5579 39.1406 60.4394C38.9188 60.321 38.7449 60.1823 38.6189 60.0235C38.4928 59.8647 38.3958 59.7236 38.3277 59.6001H38.2597V62.6816H37.1292ZM38.237 57.5999C38.237 58.0083 38.2962 58.3662 38.4147 58.6737C38.5332 58.9812 38.7046 59.222 38.9289 59.3959C39.1532 59.5673 39.428 59.653 39.7532 59.653C40.0909 59.653 40.3732 59.5635 40.6001 59.3845C40.827 59.203 40.9984 58.9573 41.1143 58.6472C41.2328 58.3372 41.292 57.9881 41.292 57.5999C41.292 57.2168 41.2341 56.8727 41.1181 56.5677C41.0047 56.2627 40.8333 56.022 40.6039 55.8455C40.377 55.6691 40.0935 55.5809 39.7532 55.5809C39.4255 55.5809 39.1482 55.6653 38.9213 55.8342C38.697 56.0031 38.5269 56.2387 38.4109 56.5412C38.295 56.8437 38.237 57.1966 38.237 57.5999ZM44.831 52.7602V60.5037H43.7005V52.7602H44.831ZM48.042 60.6323C47.674 60.6323 47.3413 60.5642 47.0439 60.4281C46.7464 60.2895 46.5107 60.0891 46.3368 59.8269C46.1654 59.5648 46.0797 59.2434 46.0797 58.8628C46.0797 58.5351 46.1427 58.2654 46.2688 58.0536C46.3948 57.8419 46.5649 57.6743 46.7792 57.5508C46.9934 57.4272 47.2329 57.334 47.4976 57.271C47.7623 57.2079 48.032 57.16 48.3067 57.1273C48.6546 57.0869 48.9369 57.0542 49.1537 57.029C49.3704 57.0012 49.528 56.9571 49.6263 56.8966C49.7246 56.8361 49.7737 56.7378 49.7737 56.6017V56.5753C49.7737 56.245 49.6805 55.9892 49.4939 55.8077C49.3099 55.6262 49.0352 55.5355 48.6697 55.5355C48.2891 55.5355 47.9891 55.6199 47.7698 55.7888C47.553 55.9552 47.4031 56.1404 47.3199 56.3446L46.2574 56.1026C46.3834 55.7497 46.5675 55.4649 46.8094 55.2481C47.0539 55.0288 47.335 54.87 47.6526 54.7717C47.9702 54.6709 48.3042 54.6205 48.6546 54.6205C48.8865 54.6205 49.1322 54.6482 49.3919 54.7037C49.654 54.7566 49.8985 54.8549 50.1254 54.9986C50.3548 55.1423 50.5425 55.3477 50.6887 55.6149C50.8349 55.8796 50.908 56.2236 50.908 56.6471V60.5037H49.804V59.7097H49.7586C49.6855 59.8559 49.5759 59.9996 49.4297 60.1407C49.2835 60.2819 49.0957 60.3991 48.8663 60.4924C48.6369 60.5856 48.3622 60.6323 48.042 60.6323ZM48.2878 59.7248C48.6004 59.7248 48.8676 59.6631 49.0894 59.5396C49.3137 59.416 49.4839 59.2547 49.5998 59.0556C49.7183 58.8539 49.7775 58.6384 49.7775 58.409V57.6604C49.7372 57.7007 49.6591 57.7385 49.5431 57.7738C49.4297 57.8066 49.2999 57.8356 49.1537 57.8608C49.0075 57.8835 48.865 57.9049 48.7264 57.9251C48.5878 57.9427 48.4718 57.9578 48.3786 57.9704C48.1593 57.9982 47.9589 58.0448 47.7774 58.1103C47.5984 58.1759 47.4547 58.2704 47.3463 58.3939C47.2405 58.5149 47.1875 58.6762 47.1875 58.8779C47.1875 59.1577 47.2909 59.3694 47.4976 59.5131C47.7043 59.6542 47.9677 59.7248 48.2878 59.7248ZM54.8601 60.6209C54.298 60.6209 53.814 60.4936 53.4082 60.239C53.0049 59.9819 52.6949 59.6278 52.4781 59.1766C52.2613 58.7254 52.1529 58.2086 52.1529 57.6264C52.1529 57.0365 52.2638 56.516 52.4857 56.0648C52.7075 55.6111 53.02 55.2569 53.4233 55.0024C53.8267 54.7478 54.3018 54.6205 54.8488 54.6205C55.2899 54.6205 55.6831 54.7024 56.0284 54.8662C56.3738 55.0276 56.6523 55.2544 56.864 55.5468C57.0783 55.8392 57.2056 56.1808 57.2459 56.5715H56.1457C56.0852 56.2992 55.9465 56.0648 55.7298 55.8682C55.5155 55.6716 55.2281 55.5733 54.8677 55.5733C54.5526 55.5733 54.2766 55.6565 54.0396 55.8228C53.8052 55.9867 53.6225 56.2211 53.4914 56.5261C53.3603 56.8286 53.2948 57.1865 53.2948 57.5999C53.2948 58.0234 53.3591 58.3889 53.4876 58.6964C53.6162 59.0039 53.7977 59.2421 54.0321 59.411C54.269 59.5799 54.5476 59.6643 54.8677 59.6643C55.0819 59.6643 55.276 59.6253 55.45 59.5471C55.6264 59.4665 55.7739 59.3518 55.8923 59.203C56.0133 59.0543 56.0978 58.8754 56.1457 58.6661H57.2459C57.2056 59.0417 57.0833 59.377 56.8792 59.6719C56.675 59.9668 56.4015 60.1987 56.0587 60.3676C55.7184 60.5365 55.3189 60.6209 54.8601 60.6209ZM60.9579 60.6209C60.3857 60.6209 59.8929 60.4987 59.4796 60.2542C59.0687 60.0071 58.7511 59.6605 58.5267 59.2144C58.3049 58.7657 58.194 58.2402 58.194 57.6377C58.194 57.0428 58.3049 56.5185 58.5267 56.0648C58.7511 55.6111 59.0636 55.2569 59.4644 55.0024C59.8677 54.7478 60.3391 54.6205 60.8785 54.6205C61.2062 54.6205 61.5238 54.6747 61.8313 54.7831C62.1389 54.8915 62.4149 55.0616 62.6594 55.2935C62.9039 55.5254 63.0967 55.8266 63.2379 56.1972C63.379 56.5652 63.4496 57.0126 63.4496 57.5394V57.9402H58.833V57.0933H62.3418C62.3418 56.7958 62.2813 56.5324 62.1603 56.303C62.0393 56.0711 61.8691 55.8884 61.6498 55.7548C61.4331 55.6212 61.1785 55.5544 60.8861 55.5544C60.5685 55.5544 60.2912 55.6325 60.0543 55.7888C59.8198 55.9426 59.6384 56.1442 59.5098 56.3938C59.3838 56.6408 59.3208 56.9092 59.3208 57.1991V57.8608C59.3208 58.249 59.3888 58.5792 59.5249 58.8514C59.6636 59.1236 59.8564 59.3316 60.1034 59.4753C60.3504 59.6164 60.6391 59.687 60.9693 59.687C61.1835 59.687 61.3789 59.6568 61.5553 59.5963C61.7318 59.5333 61.8843 59.44 62.0128 59.3165C62.1414 59.193 62.2397 59.0405 62.3077 58.859L63.3778 59.0518C63.2921 59.3669 63.1383 59.6429 62.9165 59.8798C62.6972 60.1143 62.4212 60.297 62.0884 60.4281C61.7582 60.5566 61.3814 60.6209 60.9579 60.6209Z" fill="#FCFCFD"/>
<defs>
<filter id="filter0_b_1_29657" x="-39.1519" y="-50.1756" width="143.838" height="144.028" filterUnits="userSpaceOnUse" color-interpolation-filters="sRGB">
<feFlood flood-opacity="0" result="BackgroundImageFix"/>
<feGaussianBlur in="BackgroundImageFix" stdDeviation="25.3359"/>
<feComposite in2="SourceAlpha" operator="in" result="effect1_backgroundBlur_1_29657"/>
<feBlend mode="normal" in="SourceGraphic" in2="effect1_backgroundBlur_1_29657" result="shape"/>
</filter>
<linearGradient id="paint0_linear_1_29657" x1="18.1219" y1="1.10604" x2="61.8567" y2="22.2991" gradientUnits="userSpaceOnUse">
<stop stop-color="#EFEFEF" stop-opacity="0.6"/>
<stop offset="1" stop-color="white" stop-opacity="0.08"/>
</linearGradient>
<linearGradient id="paint1_linear_1_29657" x1="13.6448" y1="3.97196" x2="58.8472" y2="20.7353" gradientUnits="userSpaceOnUse">
<stop stop-color="white" stop-opacity="0.6"/>
<stop offset="1" stop-color="white" stop-opacity="0.1"/>
</linearGradient>
</defs>
</svg>
