<svg width="46" height="65" viewBox="0 0 46 65" fill="none" xmlns="http://www.w3.org/2000/svg">
<g filter="url(#filter0_b_1_29645)">
<rect x="1.79443" y="0.496277" width="42.5891" height="42.5891" rx="21.2946" fill="url(#paint0_linear_1_29645)"/>
<path d="M25.4846 16.7334C25.322 16.8992 25.2309 17.1222 25.2309 17.3545C25.2309 17.5867 25.322 17.8097 25.4846 17.9756L26.9042 19.3952C27.0701 19.5578 27.293 19.6488 27.5253 19.6488C27.7575 19.6488 27.9805 19.5578 28.1464 19.3952L31.4914 16.0502C31.9376 17.0361 32.0726 18.1346 31.8787 19.1992C31.6847 20.2639 31.1708 21.2441 30.4056 22.0093C29.6404 22.7746 28.6602 23.2884 27.5955 23.4824C26.5309 23.6764 25.4324 23.5413 24.4465 23.0951L18.3154 29.2262C17.9624 29.5792 17.4837 29.7775 16.9845 29.7775C16.4853 29.7775 16.0066 29.5792 15.6536 29.2262C15.3006 28.8732 15.1023 28.3945 15.1023 27.8953C15.1023 27.3961 15.3006 26.9173 15.6536 26.5644L21.7846 20.4333C21.3385 19.4474 21.2034 18.3489 21.3974 17.2842C21.5914 16.2196 22.1052 15.2393 22.8704 14.4741C23.6356 13.7089 24.6159 13.1951 25.6805 13.0011C26.7452 12.8071 27.8437 12.9422 28.8296 13.3884L25.4934 16.7245L25.4846 16.7334Z" stroke="white" stroke-width="1.77455" stroke-linecap="round" stroke-linejoin="round"/>
<rect x="2.12716" y="0.829004" width="41.9237" height="41.9237" rx="20.9618" stroke="url(#paint1_linear_1_29645)" stroke-width="0.665455"/>
</g>
<path d="M5.66321 54.6997C5.62287 54.3418 5.45651 54.0645 5.16411 53.8679C4.87172 53.6688 4.5037 53.5692 4.06006 53.5692C3.74246 53.5692 3.46771 53.6196 3.23581 53.7204C3.00391 53.8188 2.82368 53.9549 2.69512 54.1288C2.56909 54.3002 2.50608 54.4956 2.50608 54.7149C2.50608 54.8989 2.54893 55.0577 2.63463 55.1913C2.72285 55.3249 2.83754 55.437 2.9787 55.5278C3.12238 55.616 3.27614 55.6903 3.43998 55.7508C3.60382 55.8088 3.76137 55.8567 3.91261 55.8945L4.6688 56.0911C4.91583 56.1516 5.16916 56.2335 5.42878 56.3369C5.68841 56.4402 5.92914 56.5764 6.15095 56.7452C6.37277 56.9141 6.55174 57.1233 6.68785 57.3729C6.82649 57.6224 6.89581 57.9211 6.89581 58.269C6.89581 58.7076 6.78238 59.097 6.55552 59.4373C6.33118 59.7776 6.00476 60.0461 5.57624 60.2427C5.15025 60.4393 4.63477 60.5376 4.02982 60.5376C3.45006 60.5376 2.94845 60.4456 2.52498 60.2616C2.10151 60.0776 1.77004 59.8167 1.53058 59.4789C1.29112 59.1386 1.15878 58.7353 1.13357 58.269H2.30568C2.32837 58.5488 2.41911 58.7819 2.57791 58.9685C2.73924 59.1525 2.94467 59.2899 3.19422 59.3806C3.44628 59.4688 3.72229 59.5129 4.02225 59.5129C4.35246 59.5129 4.64612 59.4613 4.90323 59.3579C5.16285 59.252 5.36703 59.1058 5.51575 58.9193C5.66447 58.7303 5.73883 58.5097 5.73883 58.2576C5.73883 58.0283 5.67329 57.8405 5.54221 57.6943C5.41366 57.5481 5.23847 57.4271 5.01666 57.3313C4.79736 57.2355 4.54907 57.1511 4.2718 57.078L3.3568 56.8284C2.73672 56.6595 2.24519 56.4113 1.88221 56.0836C1.52176 55.7559 1.34153 55.3223 1.34153 54.7829C1.34153 54.3368 1.46252 53.9473 1.7045 53.6146C1.94649 53.2819 2.27417 53.0235 2.68756 52.8395C3.10095 52.6529 3.56727 52.5597 4.08653 52.5597C4.61083 52.5597 5.07337 52.6517 5.47416 52.8357C5.87746 53.0197 6.19507 53.273 6.42697 53.5957C6.65887 53.9158 6.77986 54.2838 6.78994 54.6997H5.66321ZM10.7042 60.5262C10.132 60.5262 9.63924 60.404 9.22585 60.1595C8.81498 59.9125 8.49738 59.5659 8.27304 59.1197C8.05122 58.671 7.94031 58.1455 7.94031 57.543C7.94031 56.9482 8.05122 56.4239 8.27304 55.9701C8.49738 55.5164 8.80994 55.1623 9.21072 54.9077C9.61403 54.6531 10.0854 54.5258 10.6248 54.5258C10.9525 54.5258 11.2701 54.58 11.5776 54.6884C11.8851 54.7968 12.1612 54.9669 12.4057 55.1988C12.6502 55.4307 12.843 55.7319 12.9842 56.1025C13.1253 56.4705 13.1959 56.9179 13.1959 57.4447V57.8455H8.5793V56.9986H12.0881C12.0881 56.7011 12.0276 56.4377 11.9066 56.2083C11.7856 55.9764 11.6154 55.7937 11.3961 55.6601C11.1794 55.5265 10.9248 55.4597 10.6324 55.4597C10.3148 55.4597 10.0375 55.5378 9.80056 55.6941C9.56614 55.8479 9.38465 56.0495 9.25609 56.2991C9.13006 56.5461 9.06704 56.8146 9.06704 57.1044V57.7661C9.06704 58.1543 9.1351 58.4845 9.27122 58.7567C9.40985 59.029 9.60269 59.2369 9.84971 59.3806C10.0967 59.5218 10.3854 59.5923 10.7156 59.5923C10.9298 59.5923 11.1252 59.5621 11.3016 59.5016C11.4781 59.4386 11.6306 59.3453 11.7591 59.2218C11.8877 59.0983 11.986 58.9458 12.054 58.7643L13.1241 58.9571C13.0383 59.2722 12.8846 59.5482 12.6628 59.7852C12.4435 60.0196 12.1675 60.2023 11.8347 60.3334C11.5045 60.462 11.1277 60.5262 10.7042 60.5262ZM14.4502 60.409V54.6014H15.5429V55.524H15.6034C15.7093 55.2114 15.8958 54.9657 16.163 54.7867C16.4327 54.6052 16.7377 54.5145 17.078 54.5145C17.1486 54.5145 17.2318 54.517 17.3276 54.522C17.4259 54.5271 17.5028 54.5334 17.5582 54.5409V55.6223C17.5128 55.6097 17.4322 55.5958 17.3162 55.5807C17.2003 55.5631 17.0843 55.5542 16.9684 55.5542C16.7012 55.5542 16.463 55.6109 16.2538 55.7244C16.0471 55.8353 15.8832 55.9903 15.7622 56.1894C15.6412 56.386 15.5808 56.6104 15.5808 56.8625V60.409H14.4502ZM23.6815 54.6014L21.5755 60.409H20.3656L18.2558 54.6014H19.4695L20.9403 59.0706H21.0008L22.4678 54.6014H23.6815ZM24.744 60.409V54.6014H25.8745V60.409H24.744ZM25.3149 53.7053C25.1183 53.7053 24.9494 53.6398 24.8083 53.5087C24.6696 53.3751 24.6003 53.2163 24.6003 53.0323C24.6003 52.8458 24.6696 52.687 24.8083 52.5559C24.9494 52.4223 25.1183 52.3555 25.3149 52.3555C25.5115 52.3555 25.6792 52.4223 25.8178 52.5559C25.9589 52.687 26.0295 52.8458 26.0295 53.0323C26.0295 53.2163 25.9589 53.3751 25.8178 53.5087C25.6792 53.6398 25.5115 53.7053 25.3149 53.7053ZM29.8417 60.5262C29.2796 60.5262 28.7956 60.3989 28.3898 60.1444C27.9865 59.8872 27.6765 59.5331 27.4597 59.0819C27.2429 58.6307 27.1345 58.114 27.1345 57.5317C27.1345 56.9419 27.2454 56.4213 27.4673 55.9701C27.6891 55.5164 28.0016 55.1623 28.4049 54.9077C28.8082 54.6531 29.2834 54.5258 29.8304 54.5258C30.2715 54.5258 30.6647 54.6077 31.01 54.7716C31.3554 54.9329 31.6339 55.1597 31.8456 55.4521C32.0599 55.7445 32.1872 56.0861 32.2275 56.4768H31.1273C31.0668 56.2046 30.9281 55.9701 30.7113 55.7735C30.4971 55.5769 30.2097 55.4786 29.8493 55.4786C29.5342 55.4786 29.2582 55.5618 29.0212 55.7282C28.7868 55.892 28.6041 56.1264 28.473 56.4314C28.3419 56.7339 28.2764 57.0918 28.2764 57.5052C28.2764 57.9287 28.3407 58.2942 28.4692 58.6017C28.5978 58.9092 28.7793 59.1474 29.0137 59.3163C29.2506 59.4852 29.5292 59.5696 29.8493 59.5696C30.0635 59.5696 30.2576 59.5306 30.4316 59.4524C30.608 59.3718 30.7555 59.2571 30.8739 59.1084C30.9949 58.9596 31.0794 58.7807 31.1273 58.5715H32.2275C32.1872 58.947 32.0649 59.2823 31.8608 59.5772C31.6566 59.8721 31.3831 60.104 31.0403 60.2729C30.7 60.4418 30.3005 60.5262 29.8417 60.5262ZM35.9395 60.5262C35.3673 60.5262 34.8745 60.404 34.4611 60.1595C34.0503 59.9125 33.7327 59.5659 33.5083 59.1197C33.2865 58.671 33.1756 58.1455 33.1756 57.543C33.1756 56.9482 33.2865 56.4239 33.5083 55.9701C33.7327 55.5164 34.0452 55.1623 34.446 54.9077C34.8493 54.6531 35.3207 54.5258 35.8601 54.5258C36.1878 54.5258 36.5054 54.58 36.8129 54.6884C37.1204 54.7968 37.3965 54.9669 37.641 55.1988C37.8855 55.4307 38.0783 55.7319 38.2195 56.1025C38.3606 56.4705 38.4312 56.9179 38.4312 57.4447V57.8455H33.8146V56.9986H37.3234C37.3234 56.7011 37.2629 56.4377 37.1419 56.2083C37.0209 55.9764 36.8507 55.7937 36.6314 55.6601C36.4147 55.5265 36.1601 55.4597 35.8677 55.4597C35.5501 55.4597 35.2728 55.5378 35.0359 55.6941C34.8014 55.8479 34.6199 56.0495 34.4914 56.2991C34.3654 56.5461 34.3023 56.8146 34.3023 57.1044V57.7661C34.3023 58.1543 34.3704 58.4845 34.5065 58.7567C34.6452 59.029 34.838 59.2369 35.085 59.3806C35.332 59.5218 35.6207 59.5923 35.9509 59.5923C36.1651 59.5923 36.3605 59.5621 36.5369 59.5016C36.7134 59.4386 36.8659 59.3453 36.9944 59.2218C37.123 59.0983 37.2213 58.9458 37.2893 58.7643L38.3594 58.9571C38.2736 59.2722 38.1199 59.5482 37.8981 59.7852C37.6788 60.0196 37.4028 60.2023 37.07 60.3334C36.7398 60.462 36.363 60.5262 35.9395 60.5262ZM44.0375 56.0193L43.0128 56.2008C42.97 56.0697 42.9019 55.9449 42.8086 55.8265C42.7179 55.708 42.5944 55.6109 42.4381 55.5353C42.2818 55.4597 42.0865 55.4219 41.852 55.4219C41.5319 55.4219 41.2647 55.4937 41.0505 55.6374C40.8362 55.7786 40.7291 55.9613 40.7291 56.1857C40.7291 56.3797 40.8009 56.536 40.9446 56.6545C41.0883 56.773 41.3202 56.87 41.6403 56.9456L42.5629 57.1574C43.0972 57.2809 43.4955 57.4712 43.7577 57.7283C44.0198 57.9854 44.1509 58.3194 44.1509 58.7303C44.1509 59.0781 44.0501 59.3882 43.8484 59.6604C43.6493 59.9301 43.3707 60.1418 43.0128 60.2956C42.6574 60.4494 42.2453 60.5262 41.7764 60.5262C41.1261 60.5262 40.5955 60.3876 40.1846 60.1103C39.7738 59.8305 39.5217 59.4335 39.4284 58.9193L40.5211 58.753C40.5892 59.0378 40.7291 59.2533 40.9408 59.3995C41.1526 59.5432 41.4286 59.615 41.7689 59.615C42.1394 59.615 42.4356 59.5381 42.6574 59.3844C42.8792 59.2281 42.9901 59.0378 42.9901 58.8134C42.9901 58.632 42.9221 58.4795 42.7859 58.3559C42.6524 58.2324 42.4469 58.1392 42.1696 58.0762L41.1866 57.8606C40.6446 57.7371 40.2439 57.5405 39.9842 57.2708C39.7271 57.0011 39.5986 56.6595 39.5986 56.2462C39.5986 55.9033 39.6944 55.6034 39.8859 55.3463C40.0775 55.0892 40.3422 54.8888 40.6799 54.7451C41.0177 54.5989 41.4046 54.5258 41.8407 54.5258C42.4683 54.5258 42.9624 54.6619 43.3228 54.9341C43.6833 55.2039 43.9215 55.5656 44.0375 56.0193Z" fill="#FCFCFD"/>
<defs>
<filter id="filter0_b_1_29645" x="-48.8774" y="-50.1756" width="143.933" height="143.933" filterUnits="userSpaceOnUse" color-interpolation-filters="sRGB">
<feFlood flood-opacity="0" result="BackgroundImageFix"/>
<feGaussianBlur in="BackgroundImageFix" stdDeviation="25.3359"/>
<feComposite in2="SourceAlpha" operator="in" result="effect1_backgroundBlur_1_29645"/>
<feBlend mode="normal" in="SourceGraphic" in2="effect1_backgroundBlur_1_29645" result="shape"/>
</filter>
<linearGradient id="paint0_linear_1_29645" x1="8.41096" y1="1.10469" x2="52.1688" y2="22.4033" gradientUnits="userSpaceOnUse">
<stop stop-color="#EFEFEF" stop-opacity="0.6"/>
<stop offset="1" stop-color="white" stop-opacity="0.08"/>
</linearGradient>
<linearGradient id="paint1_linear_1_29645" x1="3.92389" y1="3.96425" x2="49.178" y2="20.8214" gradientUnits="userSpaceOnUse">
<stop stop-color="white" stop-opacity="0.6"/>
<stop offset="1" stop-color="white" stop-opacity="0.1"/>
</linearGradient>
</defs>
</svg>
